<?xml version="1.0" encoding="UTF-8" standalone="no"?>
<svg width="21px" height="23px" viewBox="0 0 21 23" version="1.1" xmlns="http://www.w3.org/2000/svg" xmlns:xlink="http://www.w3.org/1999/xlink" xmlns:sketch="http://www.bohemiancoding.com/sketch/ns">
    <!-- Generator: Sketch 3.4.4 (17249) - http://www.bohemiancoding.com/sketch -->
    <title>Fill 92 + Fill 93 + Fill 94</title>
    <desc>Created with Sketch.</desc>
    <defs></defs>
    <g id="Page-1" stroke="none" stroke-width="1" fill="none" fill-rule="evenodd" sketch:type="MSPage">
        <g id="Fill-92-+-Fill-93-+-Fill-94" sketch:type="MSLayerGroup" transform="translate(0.000000, -1.000000)" fill="#000000">
            <path d="M0.2373,2.5992 C0.0903,2.6902 0.0003,2.8512 0.0003,3.0242 L0.0003,18.5242 C0.0003,18.7142 0.1063,18.8872 0.2763,18.9722 L9.9983,23.8332 L9.9983,7.2152 L0.7233,2.5772 C0.5683,2.5002 0.3843,2.5082 0.2373,2.5992" id="Fill-92" sketch:type="MSShapeGroup"></path>
            <path d="M20.7588,2.5992 C20.6118,2.5082 20.4278,2.5002 20.2728,2.5772 L10.9978,7.2152 L10.9978,23.8332 L20.7198,18.9722 C20.8898,18.8872 20.9958,18.7142 20.9958,18.5242 L20.9958,3.0242 C20.9958,2.8512 20.9058,2.6902 20.7588,2.5992" id="Fill-93" sketch:type="MSShapeGroup"></path>
            <path d="M18.9443,1.2745 C18.8193,1.0285 18.5183,0.9285 18.2723,1.0545 L10.4983,4.9885 L2.7233,1.0545 C2.4773,0.9295 2.1773,1.0285 2.0513,1.2745 C1.9273,1.5225 2.0263,1.8215 2.2723,1.9465 L10.2723,5.9945 C10.3433,6.0305 10.4213,6.0485 10.4983,6.0485 C10.5763,6.0485 10.6533,6.0305 10.7233,5.9945 L18.7233,1.9465 C18.9703,1.8215 19.0693,1.5225 18.9443,1.2745" id="Fill-94" sketch:type="MSShapeGroup"></path>
        </g>
    </g>
</svg>