<?xml version="1.0" encoding="UTF-8" standalone="no"?>
<svg width="24px" height="24px" viewBox="0 0 24 24" version="1.1" xmlns="http://www.w3.org/2000/svg" xmlns:xlink="http://www.w3.org/1999/xlink" xmlns:sketch="http://www.bohemiancoding.com/sketch/ns">
    <!-- Generator: Sketch 3.4.4 (17249) - http://www.bohemiancoding.com/sketch -->
    <title>Fill 33</title>
    <desc>Created with Sketch.</desc>
    <defs></defs>
    <g id="Page-1" stroke="none" stroke-width="1" fill="none" fill-rule="evenodd" sketch:type="MSPage">
        <g id="Fill-33" sketch:type="MSLayerGroup" fill="#000000">
            <path d="M12,16 C9.794,16 8,14.205 8,12 C8,9.795 9.794,8 12,8 C14.206,8 16,9.795 16,12 C16,14.205 14.206,16 12,16 M23.5,10 L20.645,10 C20.445,9.21 20.191,8.333 19.867,7.668 L21.899,5.636 C21.993,5.542 22.046,5.415 22.046,5.283 C22.046,5.15 21.993,5.022 21.899,4.929 L19.07,2.102 C18.875,1.905 18.559,1.905 18.363,2.102 L16.331,4.133 C15.665,3.809 14.789,3.555 14,3.356 L14,0.5 C14,0.224 13.776,0 13.5,0 L10.5,0 C10.224,0 10,0.224 10,0.5 L10,3.356 C9.21,3.555 8.334,3.809 7.669,4.133 L5.636,2.102 C5.44,1.905 5.124,1.905 4.929,2.102 L2.1,4.929 C1.905,5.123 1.905,5.44 2.1,5.636 L4.133,7.669 C3.811,8.331 3.555,9.209 3.355,10 L0.5,10 C0.224,10 0,10.224 0,10.5 L0,13.5 C0,13.776 0.224,14 0.5,14 L3.355,14 C3.555,14.791 3.811,15.668 4.133,16.331 L2.1,18.365 C2.006,18.458 1.953,18.585 1.953,18.718 C1.953,18.851 2.006,18.977 2.1,19.071 L4.929,21.899 C5.117,22.087 5.449,22.087 5.636,21.899 L7.669,19.867 C8.331,20.19 9.209,20.444 10,20.645 L10,23.5 C10,23.776 10.224,24 10.5,24 L13.5,24 C13.776,24 14,23.776 14,23.5 L14,20.645 C14.79,20.444 15.668,20.19 16.331,19.867 L18.364,21.899 C18.56,22.095 18.876,22.095 19.071,21.899 L21.899,19.071 C22.095,18.876 22.095,18.56 21.899,18.365 L19.867,16.331 C20.19,15.668 20.445,14.791 20.645,14 L23.5,14 C23.776,14 24,13.776 24,13.5 L24,10.5 C24,10.224 23.776,10 23.5,10" sketch:type="MSShapeGroup"></path>
        </g>
    </g>
</svg>