<?xml version="1.0" encoding="UTF-8" standalone="no"?>
<svg width="24px" height="19px" viewBox="0 0 24 19" version="1.1" xmlns="http://www.w3.org/2000/svg" xmlns:xlink="http://www.w3.org/1999/xlink" xmlns:sketch="http://www.bohemiancoding.com/sketch/ns">
    <!-- Generator: Sketch 3.4.4 (17249) - http://www.bohemiancoding.com/sketch -->
    <title>Fill 123 + Fill 124</title>
    <desc>Created with Sketch.</desc>
    <defs></defs>
    <g id="Page-1" stroke="none" stroke-width="1" fill="none" fill-rule="evenodd" sketch:type="MSPage">
        <g id="Fill-123-+-Fill-124" sketch:type="MSLayerGroup" transform="translate(-1.000000, -1.000000)" fill="#000000">
            <path d="M24.8659,12.7246 L22.4459,8.5386 C22.4049,8.4696 22.3599,8.4056 22.3049,8.3486 C22.1369,8.1636 21.9079,8.0446 21.6549,8.0226 C21.3289,7.9976 21.0119,8.1266 20.8009,8.3756 L17.5889,12.2076 C17.2329,12.6306 17.2889,13.2616 17.7119,13.6166 C18.1339,13.9716 18.7659,13.9156 19.1199,13.4936 L20.5759,11.7576 C20.0229,14.5906 17.7579,17.0986 14.7739,17.7976 C12.2459,18.3926 9.6319,17.6526 7.7799,15.8226 C7.3869,15.4336 6.7549,15.4366 6.3659,15.8296 C5.9769,16.2226 5.9809,16.8556 6.3739,17.2446 C8.1839,19.0346 10.5719,19.9996 13.0419,19.9996 C13.7679,19.9996 14.5029,19.9156 15.2309,19.7456 C18.8369,18.9006 21.6089,15.9446 22.4449,12.5336 L23.1339,13.7256 C23.3199,14.0466 23.6559,14.2256 24.0009,14.2256 C24.1709,14.2256 24.3439,14.1826 24.5009,14.0906 C24.9789,13.8146 25.1419,13.2036 24.8659,12.7246" id="Fill-123" sketch:type="MSShapeGroup"></path>
            <path d="M8.4147,8.3887 C7.9907,8.0337 7.3607,8.0887 7.0067,8.5127 L5.2837,10.5677 C5.3167,9.2847 5.6807,8.0187 6.3687,6.8697 C7.4797,5.0157 9.2967,3.6757 11.3527,3.1947 C14.0477,2.5617 16.8597,3.4607 18.6937,5.5387 C19.0597,5.9527 19.6897,5.9927 20.1047,5.6277 C20.5187,5.2627 20.5597,4.6307 20.1937,4.2157 C17.8717,1.5837 14.3097,0.4447 10.8947,1.2467 C8.3157,1.8517 6.0407,3.5267 4.6527,5.8417 C4.0287,6.8827 3.6237,8.0037 3.4237,9.1537 L2.8577,8.2097 C2.5727,7.7377 1.9587,7.5837 1.4847,7.8677 C1.0127,8.1527 0.8577,8.7667 1.1427,9.2407 L3.7037,13.5017 C3.8697,13.7797 4.1597,13.9587 4.4817,13.9847 C4.5087,13.9867 4.5337,13.9877 4.5607,13.9877 C4.8537,13.9877 5.1357,13.8577 5.3267,13.6297 L8.5387,9.7977 C8.8927,9.3737 8.8387,8.7427 8.4147,8.3887" id="Fill-124" sketch:type="MSShapeGroup"></path>
        </g>
    </g>
</svg>